<svg width="120" height="120" viewBox="0 0 120 120" fill="none" xmlns="http://www.w3.org/2000/svg">
<path d="M34.9219 94.4531C30.003 94.4531 26.0156 90.4655 26.0156 85.5469V35.3906C26.0156 30.4718 30.003 26.4844 34.9219 26.4844H60L65.4267 40.1032H85.0781C89.9967 40.1032 93.9844 44.0906 93.9844 49.0095V85.5469C93.9844 90.4655 89.9967 94.4531 85.0781 94.4531H34.9219Z" fill="#4988FD"/>
<path d="M85.0781 97.9688H34.9219C28.0725 97.9688 22.5 92.3965 22.5 85.5469V35.3906C22.5 28.5412 28.0725 22.9688 34.9219 22.9688H60C60.7034 22.9688 61.3906 23.1798 61.9729 23.5745C62.5551 23.9692 63.0056 24.5295 63.266 25.1829L67.8106 36.5876H85.0781C91.9277 36.5876 97.5 42.1601 97.5 49.0095V85.5469C97.5 92.3965 91.9277 97.9688 85.0781 97.9688ZM34.9219 30C31.9495 30 29.5312 32.4183 29.5312 35.3906V85.5469C29.5312 88.5195 31.9495 90.9375 34.9219 90.9375H85.0781C88.0507 90.9375 90.4688 88.5195 90.4688 85.5469V49.0095C90.4688 46.0371 88.0507 43.6188 85.0781 43.6188H65.4267C64.7233 43.6188 64.0361 43.4078 63.4538 43.0131C62.8716 42.6184 62.4212 42.0581 62.1607 41.4047L57.6164 30H34.9219Z" fill="#4988FD"/>
<path d="M22.5 50.1562H97.5V57.1875H22.5V50.1562Z" fill="white"/>
<path d="M83.4375 82.6172C81.4959 82.6172 79.9219 81.0431 79.9219 79.1016V66.3541C79.9219 64.4126 81.4959 62.8385 83.4375 62.8385C85.3791 62.8385 86.9531 64.4126 86.9531 66.3541V79.1016C86.9531 81.0431 85.3791 82.6172 83.4375 82.6172ZM71.7188 82.6172C69.7772 82.6172 68.2031 81.0431 68.2031 79.1016V66.3541C68.2031 64.4126 69.7772 62.8385 71.7188 62.8385C73.6603 62.8385 75.2344 64.4126 75.2344 66.3541V79.1016C75.2344 81.0431 73.6603 82.6172 71.7188 82.6172ZM60 82.6172C58.0584 82.6172 56.4844 81.0431 56.4844 79.1016V66.3541C56.4844 64.4126 58.0584 62.8385 60 62.8385C61.9416 62.8385 63.5156 64.4126 63.5156 66.3541V79.1016C63.5156 81.0431 61.9416 82.6172 60 82.6172Z" fill="#DFECFD"/>
</svg>
