<svg width="120" height="120" viewBox="0 0 120 120" fill="none" xmlns="http://www.w3.org/2000/svg">
<path d="M71.7574 57.5634H74.2582C82.758 57.5634 89.6484 64.4538 89.6484 72.9537V88.9209H56.3672V72.9537C56.3672 64.4538 63.2576 57.5634 71.7574 57.5634Z" fill="#DFECFD"/>
<path d="M62.582 37.8466C62.582 43.5839 67.233 48.2346 72.97 48.2346C78.7073 48.2348 83.358 43.5841 83.3582 37.8469V37.8466M62.582 37.8464C62.582 32.1091 67.233 27.4582 72.9702 27.4582C78.7075 27.4582 83.3582 32.1091 83.3582 37.8464" fill="#DFECFD"/>
<path d="M33.5156 38.0859C33.5156 42.2196 35.1577 46.1839 38.0806 49.1069C41.0036 52.0298 44.9679 53.6719 49.1016 53.6719C53.2352 53.6719 57.1996 52.0298 60.1225 49.1069C63.0454 46.1839 64.6875 42.2196 64.6875 38.0859C64.6875 33.9523 63.0454 29.9879 60.1225 27.065C57.1996 24.1421 53.2352 22.5 49.1016 22.5C44.9679 22.5 41.0036 24.1421 38.0806 27.065C35.1577 29.9879 33.5156 33.9523 33.5156 38.0859Z" fill="#4988FD"/>
<path d="M45.8571 58.0868H52.1114C61.3221 58.0868 68.7891 65.5535 68.7891 74.7644V95.1944H29.1797V74.7644C29.1795 65.5535 36.6462 58.0868 45.8571 58.0868Z" fill="#4988FD"/>
</svg>