<svg width="476" height="420" viewBox="0 0 476 420" fill="none" xmlns="http://www.w3.org/2000/svg">
<path d="M55.6431 126.321C70.9288 112.179 90.5003 102.607 111.215 99.75C177.215 90.75 224.215 155.536 282.857 174.679C312 184.179 343.857 183.679 372.429 194.679C421.357 213.393 466.286 278.821 444.572 331.536C427.643 372.607 387.715 382.821 348.429 370.107C324.5 362.321 302.643 349.107 278.715 341.179C251.5 332.179 222.5 330.393 193.786 329.25C165.072 328.107 136.215 327.536 108.357 320.679C80.5003 313.821 53.3574 300.036 36.0717 277.179C12.0717 245.393 17.2145 186.393 35.1431 152.75C40.4288 142.821 47.4288 133.964 55.6431 126.321Z" fill="#E5E6EB"/>
<path d="M41.5 183.75C45.5714 167.179 55 151.821 68.1429 140.607L69.3571 139.536L70.6429 138.536L71.9286 137.536L73.2143 136.607C73.6429 136.321 74.0714 135.964 74.5 135.679L75.8571 134.75C76.2857 134.464 76.7143 134.107 77.2143 133.821L78.5714 132.964C82.2143 130.679 86.0714 128.679 90.0714 126.964C98 123.607 106.5 121.393 115.143 120.536C123.786 119.75 132.5 120.179 140.929 121.607C145.143 122.321 149.357 123.321 153.5 124.464C154 124.607 154.571 124.75 155.071 124.893L156.643 125.393L158.214 125.893L159.714 126.393L161.214 126.893L162.714 127.464L164.214 128.036L165.714 128.607C169.714 130.179 173.643 131.893 177.5 133.75C181.357 135.607 185.143 137.607 188.857 139.679C196.286 143.893 203.571 148.393 210.643 153.107C203.214 148.893 195.857 144.679 188.214 140.821C184.429 138.893 180.571 137.036 176.714 135.321C172.857 133.607 168.929 131.964 164.929 130.536L163.429 129.964L161.929 129.464L160.429 128.964L158.929 128.464L157.429 127.964L155.929 127.536L154.429 127.107C153.929 126.964 153.429 126.821 152.929 126.679C148.857 125.607 144.714 124.679 140.571 124.036C132.286 122.679 123.786 122.25 115.429 123.107C107.071 123.893 98.8571 125.964 91.0714 129.179C87.2143 130.75 83.4286 132.679 79.7857 134.821L78.4286 135.607C78 135.893 77.5714 136.179 77.0714 136.464L75.7857 137.321C75.3571 137.607 74.9286 137.893 74.5 138.25L73.2143 139.179L71.9286 140.107L70.6429 141.036L69.4286 142.036C56.4286 152.893 46.5714 167.536 41.5 183.75Z" fill="white"/>
<path d="M113.715 388.107C113.501 388.964 113.358 389.393 113.358 389.393C112.858 389.036 112.358 388.75 111.858 388.393C25.5721 329.25 60.0007 222.536 60.0007 222.536C142.644 270.607 117.215 375.25 113.715 388.107Z" fill="#84A9FF"/>
<path d="M113.715 388.107C113.501 388.964 113.358 389.393 113.358 389.393C112.858 389.036 112.358 388.75 111.858 388.393C104.643 367.036 97.5006 345.679 90.572 324.25C87.0006 313.179 83.4291 302.036 80.0006 290.893L77.4291 282.536L74.9291 274.179C74.072 271.393 73.3577 268.607 72.5006 265.75C72.072 264.321 71.7148 262.964 71.3577 261.536L70.2148 257.321L71.3577 261.536C71.7148 262.964 72.1434 264.321 72.572 265.75C73.4291 268.536 74.2148 271.321 75.072 274.107L77.6434 282.464L80.2863 290.821C83.8577 301.893 87.572 312.964 91.2863 324.036C98.7148 345.464 106.143 366.821 113.715 388.107Z" fill="#050F64"/>
<path d="M81.4287 275.036C81.3572 275.036 81.2858 275.036 81.143 274.964C80.9287 274.893 80.8572 274.607 81.0001 274.393C83.643 269.25 85.2858 263.464 85.7858 257.679C85.7858 257.464 86.0001 257.321 86.2144 257.321C86.4287 257.321 86.5715 257.536 86.5715 257.75C86.0715 263.607 84.3572 269.536 81.643 274.75C81.643 274.964 81.5001 275.036 81.4287 275.036Z" fill="#050F64"/>
<path d="M92.929 307.607C92.8576 307.607 92.7861 307.607 92.7147 307.607C92.5004 307.536 92.429 307.25 92.5004 307.107C94.929 301.179 97.929 295.393 101.286 289.893C101.429 289.679 101.643 289.679 101.858 289.75C102.072 289.893 102.072 290.107 102 290.321C98.6433 295.75 95.7147 301.464 93.2861 307.393C93.2147 307.464 93.0719 307.607 92.929 307.607Z" fill="#050F64"/>
<path d="M81.0719 314.607C81.0004 314.607 80.929 314.607 80.8576 314.607C74.0719 311.821 67.7862 307.964 62.2147 303.107C62.0719 302.964 62.0004 302.679 62.1433 302.536C62.2862 302.393 62.5719 302.321 62.7147 302.464C68.2147 307.25 74.3576 311.036 81.0719 313.821C81.2862 313.893 81.3576 314.179 81.2862 314.321C81.2862 314.464 81.2147 314.536 81.0719 314.607Z" fill="#050F64"/>
<path d="M72.8576 279.036C72.7147 279.107 72.5719 279.107 72.429 278.964L58.7147 268.25C58.5719 268.107 58.5004 267.821 58.6433 267.679C58.7862 267.536 59.0719 267.464 59.2147 267.607L72.929 278.321C73.0719 278.464 73.1433 278.75 73.0004 278.893C73.0004 278.964 72.929 279.036 72.8576 279.036Z" fill="#050F64"/>
<path d="M104.858 341.821C104.786 341.821 104.715 341.821 104.643 341.821C104.429 341.75 104.358 341.464 104.429 341.321L111.643 324.536C111.715 324.321 112.001 324.25 112.143 324.321C112.358 324.393 112.429 324.679 112.358 324.821L105.143 341.607C105.143 341.679 105.001 341.821 104.858 341.821Z" fill="#050F64"/>
<path d="M91.2149 344.107C91.1434 344.107 91.072 344.107 91.0006 344.107L73.6434 336.964C73.4291 336.893 73.3577 336.607 73.4291 336.464C73.5006 336.25 73.7863 336.179 73.9291 336.25L91.2863 343.393C91.5006 343.464 91.572 343.75 91.5006 343.893C91.4291 343.964 91.2863 344.107 91.2149 344.107Z" fill="#050F64"/>
<path d="M113.143 388.107C113.358 388.964 113.429 389.464 113.429 389.464C112.858 389.393 112.215 389.321 111.643 389.25C7.92899 375.107 -9.21387 264.25 -9.21387 264.25C86.1433 270.107 110.429 375.036 113.143 388.107Z" fill="#155BCD"/>
<path d="M113.144 388.107C113.358 388.964 113.429 389.464 113.429 389.464C112.858 389.393 112.215 389.321 111.644 389.25C95.5721 373.464 79.6436 357.536 63.8578 341.536C55.6436 333.25 47.5007 324.893 39.4293 316.464L33.3578 310.179L27.3578 303.821C25.3578 301.679 23.4293 299.536 21.4293 297.393C20.4293 296.321 19.5007 295.25 18.5007 294.107L15.6436 290.821L18.5721 294.036C19.5721 295.107 20.5007 296.179 21.5007 297.25C23.5007 299.393 25.5007 301.536 27.5007 303.607L33.5721 309.893L39.715 316.107C47.9293 324.393 56.1436 332.607 64.5007 340.821C80.5721 356.679 96.7864 372.464 113.144 388.107Z" fill="white"/>
<path d="M33.4288 301.607C33.3574 301.679 33.286 301.679 33.2146 301.679C33.0003 301.679 32.786 301.464 32.786 301.25C32.8574 295.464 31.7146 289.536 29.5717 284.179C29.5003 283.964 29.5717 283.75 29.786 283.679C30.0003 283.607 30.2146 283.679 30.286 283.893C32.4289 289.393 33.5717 295.393 33.5717 301.321C33.5717 301.393 33.5003 301.536 33.4288 301.607Z" fill="white"/>
<path d="M58.3571 325.464C58.2857 325.536 58.2143 325.536 58.1428 325.536C57.9285 325.536 57.7142 325.393 57.7142 325.179C57.2142 318.75 57.2857 312.25 57.8571 305.893C57.8571 305.679 58.0714 305.536 58.2857 305.536C58.5 305.536 58.6428 305.75 58.6428 305.964C58.0714 312.321 58 318.75 58.5 325.107C58.5714 325.25 58.5 325.393 58.3571 325.464Z" fill="white"/>
<path d="M50.9283 337.036C50.8569 337.107 50.7855 337.107 50.714 337.107C43.3569 337.679 36.0712 337.036 28.9283 335.179C28.714 335.107 28.5712 334.893 28.6426 334.679C28.714 334.464 28.9283 334.321 29.1426 334.393C36.214 336.179 43.4283 336.821 50.6426 336.25C50.8569 336.25 51.0712 336.393 51.0712 336.607C51.0712 336.893 50.9997 336.964 50.9283 337.036Z" fill="white"/>
<path d="M27.643 308.964C27.5716 309.036 27.4287 309.107 27.2859 309.107L10.2145 305.679C10.0002 305.607 9.85731 305.393 9.92874 305.179C10.0002 304.964 10.2145 304.821 10.4287 304.893L27.5002 308.321C27.7145 308.393 27.8573 308.607 27.7859 308.821C27.7144 308.893 27.7144 308.964 27.643 308.964Z" fill="white"/>
<path d="M84.4291 350.679C84.3577 350.75 84.2863 350.75 84.2148 350.75C84.0006 350.75 83.7863 350.607 83.7863 350.393L82.7148 332.179C82.7148 331.964 82.8577 331.75 83.072 331.75C83.2863 331.75 83.5006 331.893 83.5006 332.107L84.572 350.321C84.572 350.464 84.5006 350.607 84.4291 350.679Z" fill="white"/>
<path d="M73.2146 358.893C73.1431 358.964 73.0717 358.964 73.0003 358.964L54.286 360.393C54.0717 360.393 53.8574 360.25 53.8574 360.036C53.8574 359.821 54.0003 359.607 54.2146 359.607L72.9288 358.179C73.1431 358.179 73.3574 358.321 73.3574 358.536C73.3574 358.679 73.286 358.821 73.2146 358.893Z" fill="white"/>
<path d="M168.357 359.607C169.215 359.964 169.643 360.107 169.643 360.107C169.286 360.607 168.857 361.036 168.429 361.464C100.072 440.679 -2.14258 394.607 -2.14258 394.607C54.786 317.893 156 354.679 168.357 359.607Z" fill="#FFBD00"/>
<path d="M168.358 359.607C169.215 359.964 169.644 360.107 169.644 360.107C169.286 360.607 168.858 361.036 168.429 361.464C146.429 366.321 124.429 370.964 102.358 375.536C90.9293 377.893 79.5007 380.179 68.0721 382.393L59.5007 384.036L50.9293 385.607C48.0721 386.107 45.215 386.607 42.2864 387.036C40.8578 387.321 39.4293 387.464 38.0007 387.679L33.6436 388.321L37.9293 387.607C39.3578 387.393 40.7864 387.179 42.215 386.893C45.0721 386.393 47.9293 385.893 50.7864 385.321L59.3578 383.679L67.9293 381.964C79.3578 379.607 90.715 377.179 102.144 374.679C124.286 369.75 146.358 364.75 168.358 359.607Z" fill="white"/>
<path d="M52.4287 379.25C52.4287 379.321 52.4287 379.393 52.3573 379.464C52.2144 379.679 52.0002 379.679 51.7859 379.607C46.9287 376.393 41.3573 374.107 35.7145 372.964C35.5002 372.893 35.3573 372.679 35.4287 372.464C35.5002 372.25 35.7144 372.107 35.9287 372.179C41.7144 373.321 47.3573 375.679 52.2859 378.964C52.3573 378.964 52.3573 379.107 52.4287 379.25Z" fill="white"/>
<path d="M86.0003 371.321C86.0003 371.393 86.0003 371.464 85.9289 371.536C85.786 371.75 85.5717 371.821 85.3574 371.679C79.7146 368.607 74.286 364.964 69.286 361.036C69.1432 360.893 69.0717 360.607 69.2146 360.464C69.3574 360.321 69.6432 360.25 69.786 360.393C74.786 364.321 80.2146 367.893 85.786 370.964C85.9289 371.036 86.0003 371.179 86.0003 371.321Z" fill="white"/>
<path d="M91.6434 383.893C91.6434 383.964 91.6434 384.036 91.572 384.107C88.072 390.536 83.5006 396.393 78.1434 401.321C78.0006 401.464 77.7148 401.464 77.572 401.321C77.4291 401.179 77.4291 400.893 77.572 400.75C82.9291 395.821 87.3577 390.107 90.8577 383.75C91.0006 383.536 91.2148 383.464 91.4291 383.607C91.572 383.679 91.6434 383.821 91.6434 383.893Z" fill="white"/>
<path d="M55.429 388.107C55.5004 388.25 55.429 388.393 55.3576 388.536L43.2147 401.036C43.0718 401.179 42.7861 401.179 42.6433 401.036C42.5004 400.893 42.5004 400.607 42.6433 400.464L54.7861 387.964C54.929 387.821 55.2147 387.821 55.3576 387.964C55.429 387.964 55.429 388.036 55.429 388.107Z" fill="white"/>
<path d="M121.357 363.25C121.357 363.321 121.357 363.393 121.285 363.464C121.143 363.679 120.928 363.75 120.714 363.607L104.857 354.536C104.643 354.393 104.571 354.179 104.714 353.964C104.857 353.75 105.071 353.679 105.285 353.821L121.143 362.893C121.285 363.036 121.357 363.107 121.357 363.25Z" fill="white"/>
<path d="M122.143 377.107C122.143 377.179 122.143 377.25 122.072 377.321L113.001 393.821C112.858 394.036 112.643 394.107 112.429 393.964C112.215 393.821 112.143 393.607 112.286 393.393L121.358 376.893C121.501 376.679 121.715 376.607 121.929 376.75C122.001 376.893 122.143 376.964 122.143 377.107Z" fill="white"/>
<path d="M417.786 307.464C417.072 307.607 416.072 307.25 414.643 306.464C412.358 305.107 408.715 302.964 407.358 302.107C409.5 306.607 411.5 311.179 413.286 315.821C416.5 315.107 418.929 315.75 420.5 316.821C422.072 317.893 422.858 319.393 422.858 320.107C422.786 321.536 421.572 321.821 419.358 320.321C418.215 319.536 416.715 318.464 415.429 317.536C414.5 316.893 413.786 316.321 413.429 316.107C414 317.536 414.5 318.964 415 320.393C415.072 320.393 415.072 320.393 415.143 320.393C416.072 320.536 417.358 322.607 417.929 323.321C419.143 324.964 420.072 326.821 420.215 328.893C420.286 329.75 420.143 330.75 419.358 331.179C418.5 331.607 417.5 330.964 416.858 330.25C415.072 328.25 414 325.607 413.929 322.964C413.929 322.25 413.858 320.607 414.786 320.464C414.215 319.036 413.715 317.679 413.143 316.25C413.072 316.679 412.858 317.607 412.643 318.679C412.286 320.179 411.858 322.036 411.429 323.25C410.643 325.75 409.5 326.179 408.572 325.25C408.072 324.75 407.786 323.321 408.358 321.536C408.929 319.821 410.215 317.75 413.072 316.036C411.143 311.464 409.072 306.964 406.786 302.536C406.715 303.107 406.572 304.107 406.429 305.179C406.215 307.036 405.786 309.25 405.429 310.75C405.072 312.25 404.572 313.179 404 313.607C403.429 314.036 402.786 313.893 402.215 313.393C401.572 312.893 401.072 311.179 401.572 308.964C402 306.893 403.429 304.321 406.572 302.107C404.072 297.393 401.429 292.75 398.572 288.25C398.572 288.321 398.572 288.393 398.572 288.464C398.572 289.179 398.572 290.25 398.5 291.393C398.429 292.536 398.358 293.821 398.286 294.964C398.215 296.179 398 297.321 397.929 298.25C397.358 302.036 395.786 302.964 394.215 301.821C393.358 301.25 392.715 299.179 393 296.536C393.143 295.179 393.643 293.679 394.572 292.107C395.358 290.679 396.572 289.107 398.286 287.607C395.572 283.464 392.715 279.393 389.715 275.464C389.786 276.321 389.858 277.464 389.858 278.75C389.929 280.036 389.929 281.536 389.929 282.893C389.929 283.607 389.929 284.25 389.929 284.893C389.929 285.536 389.858 286.179 389.858 286.679C389.572 291.036 387.858 292.25 385.929 291.107C385.429 290.821 384.929 290.107 384.572 289.107C384.215 288.107 384 286.75 384.072 285.25C384.143 283.679 384.572 281.964 385.429 280.036C386.215 278.321 387.429 276.464 389.143 274.607C386.143 270.75 383.072 267.107 379.786 263.536L381.215 262.25C384.429 265.964 387.5 269.75 390.429 273.679C392.643 272.536 394.786 271.893 396.715 271.75C398.858 271.536 400.715 271.821 402.286 272.393C403.858 272.964 405.143 273.75 406.072 274.607C406.929 275.464 407.5 276.321 407.643 276.964C408.143 279.464 406.215 280.321 401.929 278.75C399.715 277.893 396.715 276.75 394.286 275.75C393.072 275.321 391.929 274.893 391.143 274.607C394.072 278.607 396.858 282.821 399.429 287.036C401.5 286.179 403.429 285.821 405.143 285.75C407 285.75 408.572 286.107 409.929 286.75C412.643 287.964 414.072 289.964 414.215 291.036C414.429 293.25 412.786 293.893 409.143 292.179C407.286 291.25 404.786 290.036 402.715 289.036C401.715 288.536 400.715 288.107 400.072 287.75C400 287.75 400 287.679 399.929 287.679C402.715 292.25 405.286 296.964 407.643 301.821C411.286 300.679 414.215 301.179 416.215 302.321C418.215 303.464 419.286 305.179 419.358 306.036C418.858 306.821 418.5 307.321 417.786 307.464Z" fill="#84A9FF"/>
<path d="M377.286 267.036C376.929 267.821 376.714 268.25 376.714 268.25C376.286 267.821 375.857 267.393 375.429 266.964C300.214 194.25 352 94.75 352 94.75C425.357 155.964 382.857 254.893 377.286 267.036Z" fill="#84A9FF"/>
<path d="M377.286 267.036C376.929 267.821 376.715 268.25 376.715 268.25C376.286 267.821 375.858 267.393 375.429 266.964C371.858 244.75 368.429 222.464 365.143 200.179C363.429 188.679 361.786 177.107 360.286 165.536L359.143 156.893L358.072 148.179C357.715 145.25 357.429 142.393 357.072 139.464C356.929 138.036 356.786 136.536 356.643 135.107L356.286 130.75L356.715 135.107C356.858 136.536 357 138.036 357.215 139.464C357.572 142.321 357.929 145.25 358.286 148.107L359.429 156.75L360.643 165.393C362.358 176.893 364.143 188.464 366 199.964C369.643 222.393 373.358 244.75 377.286 267.036Z" fill="white"/>
<path d="M364.287 150.107C364.215 150.107 364.144 150.107 364.072 150.036C363.858 149.893 363.858 149.679 364.001 149.464C367.501 144.821 370.072 139.393 371.572 133.821C371.644 133.607 371.858 133.464 372.072 133.536C372.287 133.607 372.43 133.821 372.358 134.036C370.858 139.75 368.215 145.25 364.715 149.964C364.501 150.036 364.358 150.107 364.287 150.107Z" fill="white"/>
<path d="M370.214 184.107C370.143 184.107 370.071 184.107 370 184.036C369.786 183.893 369.786 183.679 369.857 183.464C373.286 178.036 377.143 172.821 381.429 167.964C381.571 167.821 381.857 167.75 382 167.893C382.143 168.036 382.214 168.321 382.071 168.464C377.857 173.25 374 178.393 370.571 183.821C370.5 184.036 370.357 184.107 370.214 184.107Z" fill="white"/>
<path d="M357.358 189.036C357.286 189.036 357.215 189.036 357.143 188.964C350.929 185.107 345.358 180.25 340.715 174.536C340.572 174.393 340.572 174.107 340.786 173.964C340.929 173.821 341.215 173.821 341.358 174.036C345.929 179.679 351.429 184.464 357.572 188.25C357.786 188.393 357.786 188.607 357.715 188.821C357.572 188.964 357.429 189.036 357.358 189.036Z" fill="white"/>
<path d="M355.215 152.607C355.072 152.607 354.929 152.607 354.858 152.464L343.072 139.607C342.929 139.464 342.929 139.179 343.072 139.036C343.215 138.893 343.501 138.893 343.643 139.036L355.429 151.893C355.572 152.036 355.572 152.321 355.429 152.464C355.358 152.607 355.286 152.607 355.215 152.607Z" fill="white"/>
<path d="M376.287 219.893C376.215 219.893 376.144 219.893 376.072 219.821C375.858 219.679 375.858 219.464 375.929 219.25L385.858 203.893C386.001 203.679 386.215 203.679 386.429 203.75C386.644 203.893 386.644 204.107 386.572 204.321L376.644 219.679C376.572 219.821 376.429 219.893 376.287 219.893Z" fill="white"/>
<path d="M362.358 219.821C362.286 219.821 362.215 219.821 362.143 219.75L346.215 209.821C346.001 209.679 346.001 209.464 346.072 209.25C346.215 209.036 346.429 209.036 346.643 209.107L362.572 219.036C362.786 219.179 362.786 219.393 362.715 219.607C362.643 219.75 362.501 219.821 362.358 219.821Z" fill="white"/>
<path d="M359.071 273.536C358.357 274.036 357.928 274.25 357.928 274.25C357.785 273.679 357.643 273.107 357.5 272.464C332.5 170.893 429.285 114.25 429.285 114.25C458.928 205.107 370.214 266.25 359.071 273.536Z" fill="#155BCD"/>
<path d="M359.071 273.536C358.357 274.036 357.929 274.25 357.929 274.25C357.786 273.679 357.643 273.107 357.5 272.464C366.286 251.75 375.214 231.036 384.286 210.464C389 199.821 393.786 189.179 398.571 178.536L402.214 170.607L405.929 162.679C407.143 160.036 408.5 157.464 409.714 154.821C410.357 153.536 411 152.25 411.643 150.893L413.643 147.036L411.714 150.964C411.071 152.25 410.429 153.536 409.786 154.893C408.571 157.536 407.286 160.179 406.071 162.821L402.429 170.75L398.857 178.75C394.143 189.393 389.571 200.107 385 210.821C376.286 231.679 367.643 252.607 359.071 273.536Z" fill="#050F64"/>
<path d="M410.215 167.607C410.143 167.536 410.072 167.464 410.072 167.393C410 167.179 410.072 166.964 410.286 166.893C415.715 164.821 420.786 161.607 425 157.607C425.143 157.464 425.429 157.464 425.572 157.607C425.715 157.75 425.715 158.036 425.572 158.179C421.286 162.25 416.072 165.464 410.572 167.607C410.5 167.679 410.357 167.679 410.215 167.607Z" fill="#050F64"/>
<path d="M397.215 199.607C397.143 199.536 397.072 199.536 397.072 199.464C397 199.25 397.072 199.036 397.286 198.893C403.072 196.107 409.143 193.75 415.286 191.964C415.5 191.893 415.715 192.036 415.786 192.25C415.857 192.464 415.715 192.679 415.5 192.75C409.357 194.536 403.357 196.893 397.643 199.679C397.429 199.679 397.286 199.679 397.215 199.607Z" fill="#050F64"/>
<path d="M383.643 196.893C383.572 196.821 383.5 196.821 383.5 196.679C380.286 190.036 378.215 183.036 377.286 175.75C377.286 175.536 377.429 175.321 377.643 175.321C377.858 175.321 378.072 175.464 378.072 175.679C379 182.893 381.072 189.821 384.215 196.393C384.286 196.607 384.215 196.821 384 196.964C383.929 196.964 383.786 196.964 383.643 196.893Z" fill="#050F64"/>
<path d="M401.214 164.964C401.071 164.893 401 164.821 400.929 164.679L397.786 147.536C397.714 147.321 397.857 147.107 398.143 147.036C398.357 146.964 398.572 147.107 398.643 147.393L401.786 164.536C401.857 164.75 401.714 164.964 401.429 165.036C401.357 164.964 401.286 164.964 401.214 164.964Z" fill="#050F64"/>
<path d="M383.286 233.107C383.214 233.036 383.143 233.036 383.143 232.964C383.072 232.75 383.143 232.536 383.357 232.393L399.929 224.679C400.143 224.607 400.357 224.679 400.5 224.893C400.572 225.107 400.5 225.321 400.286 225.464L383.714 233.179C383.572 233.179 383.429 233.179 383.286 233.107Z" fill="#050F64"/>
<path d="M371.571 225.679C371.5 225.607 371.429 225.607 371.429 225.536L363.214 208.607C363.143 208.393 363.214 208.179 363.429 208.036C363.643 207.964 363.857 208.036 364 208.25L372.214 225.179C372.286 225.393 372.214 225.607 372 225.75C371.857 225.75 371.643 225.75 371.571 225.679Z" fill="#050F64"/>
<path d="M327.357 296.607C326.5 296.607 326 296.536 326 296.536C326.214 295.964 326.429 295.393 326.643 294.821C363.214 196.821 475.071 204.536 475.071 204.536C448.357 296.321 340.643 296.893 327.357 296.607Z" fill="#FFBD00"/>
<path d="M327.357 296.607C326.5 296.607 326 296.536 326 296.536C326.214 295.964 326.429 295.393 326.643 294.821C345.571 282.679 364.643 270.607 383.714 258.679C393.643 252.536 403.571 246.393 413.5 240.393L421 235.893L428.5 231.464C431 229.964 433.571 228.536 436.071 227.107C437.357 226.393 438.643 225.679 439.857 224.964L443.714 222.893L439.929 225.036C438.643 225.75 437.357 226.464 436.143 227.179C433.643 228.679 431.143 230.107 428.643 231.607L421.143 236.179L413.714 240.75C403.857 246.893 394 253.179 384.143 259.464C365.143 271.75 346.214 284.107 327.357 296.607Z" fill="white"/>
<path d="M429.286 237.964C429.286 237.893 429.214 237.821 429.286 237.679C429.357 237.464 429.571 237.321 429.786 237.393C435.428 238.679 441.429 238.964 447.143 238.036C447.357 238.036 447.571 238.179 447.643 238.393C447.643 238.607 447.5 238.821 447.286 238.893C441.428 239.821 435.357 239.607 429.571 238.25C429.428 238.107 429.357 238.036 429.286 237.964Z" fill="white"/>
<path d="M400.5 257.036C400.5 256.964 400.429 256.893 400.5 256.821C400.5 256.607 400.715 256.464 400.929 256.464C407.286 257.393 413.643 258.893 419.715 260.893C419.929 260.964 420.072 261.179 420.001 261.393C419.929 261.607 419.715 261.75 419.501 261.679C413.429 259.75 407.143 258.25 400.858 257.321C400.643 257.25 400.572 257.107 400.5 257.036Z" fill="white"/>
<path d="M390.858 247.179C390.786 247.107 390.786 247.036 390.786 246.964C391.858 239.679 394.072 232.679 397.429 226.107C397.5 225.893 397.786 225.821 398 225.964C398.215 226.036 398.286 226.321 398.143 226.536C394.858 233.036 392.643 239.893 391.572 247.107C391.572 247.321 391.358 247.464 391.143 247.464C391 247.321 390.858 247.25 390.858 247.179Z" fill="white"/>
<path d="M423.358 230.679C423.286 230.536 423.286 230.393 423.286 230.25L430.358 214.321C430.429 214.107 430.715 214.036 430.929 214.107C431.143 214.179 431.215 214.464 431.143 214.679L424.072 230.607C424 230.821 423.715 230.893 423.5 230.821C423.429 230.75 423.358 230.679 423.358 230.679Z" fill="white"/>
<path d="M370.143 276.821C370.143 276.75 370.072 276.679 370.143 276.607C370.215 276.393 370.357 276.25 370.643 276.25L388.643 279.25C388.857 279.321 389 279.464 389 279.75C388.929 279.964 388.786 280.107 388.5 280.107L370.5 277.107C370.286 277.036 370.215 276.964 370.143 276.821Z" fill="white"/>
<path d="M364.643 264.107C364.643 264.036 364.572 263.964 364.643 263.893L367.429 245.321C367.429 245.107 367.643 244.964 367.857 244.964C368.072 244.964 368.215 245.179 368.215 245.393L365.429 263.964C365.429 264.179 365.215 264.321 365 264.321C364.786 264.321 364.715 264.179 364.643 264.107Z" fill="white"/>
<path d="M300.786 163.679C300.714 164.393 301.071 165.393 301.929 166.75C303.429 168.964 305.786 172.464 306.643 173.821C302.071 171.893 297.357 170.179 292.643 168.607C293.214 165.393 292.429 162.964 291.286 161.464C290.143 159.893 288.643 159.25 287.857 159.321C286.429 159.464 286.214 160.679 287.857 162.821C288.643 163.893 289.857 165.321 290.857 166.607C291.571 167.464 292.143 168.179 292.429 168.536C291 168.036 289.5 167.607 288.071 167.179C288.071 167.107 288.071 167.107 288.071 167.036C287.857 166.107 285.714 164.893 285 164.393C283.286 163.25 281.357 162.464 279.357 162.393C278.5 162.393 277.5 162.607 277.143 163.393C276.786 164.25 277.5 165.25 278.214 165.821C280.286 167.536 283 168.393 285.643 168.321C286.357 168.321 288 168.321 288.143 167.321C289.571 167.821 291 168.25 292.429 168.75C292 168.893 291.071 169.107 290 169.393C288.5 169.821 286.714 170.393 285.5 170.821C283.071 171.75 282.643 172.893 283.643 173.821C284.143 174.25 285.643 174.536 287.357 173.821C289.071 173.179 291.071 171.75 292.571 168.821C297.286 170.464 301.857 172.321 306.357 174.321C305.786 174.393 304.786 174.607 303.714 174.821C301.929 175.179 299.714 175.679 298.214 176.107C296.714 176.536 295.857 177.107 295.429 177.679C295.071 178.25 295.143 178.893 295.714 179.464C296.286 180.036 298 180.464 300.143 179.821C302.214 179.25 304.643 177.75 306.786 174.464C311.643 176.679 316.429 179.107 321.071 181.75C321 181.75 320.929 181.75 320.857 181.75C320.143 181.821 319.071 181.893 317.929 182.036C316.786 182.179 315.571 182.321 314.357 182.464C313.143 182.607 312 182.821 311.071 183.036C307.357 183.821 306.5 185.393 307.714 186.964C308.357 187.75 310.429 188.321 313.071 187.893C314.429 187.679 315.929 187.107 317.429 186.107C318.857 185.179 320.286 183.964 321.714 182.179C326 184.607 330.214 187.25 334.357 190.107C333.5 190.107 332.357 190.107 331.071 190.107C329.786 190.107 328.286 190.179 326.929 190.25C326.214 190.321 325.571 190.321 324.929 190.393C324.286 190.464 323.714 190.536 323.143 190.607C318.786 191.179 317.714 192.893 318.929 194.75C319.214 195.25 320 195.679 321 195.964C322.071 196.25 323.357 196.464 324.929 196.25C326.5 196.036 328.214 195.607 330.071 194.607C331.714 193.75 333.5 192.464 335.286 190.607C339.286 193.393 343.143 196.321 346.857 199.393L348.071 197.893C344.214 194.893 340.214 192.036 336.143 189.321C337.143 187.036 337.643 184.893 337.714 182.964C337.786 180.821 337.429 178.964 336.786 177.464C336.143 175.964 335.286 174.679 334.357 173.821C333.429 172.964 332.571 172.464 331.929 172.393C329.429 172.036 328.643 173.964 330.5 178.179C331.5 180.321 332.786 183.25 333.929 185.679C334.429 186.893 334.929 187.964 335.286 188.75C331.071 186.036 326.786 183.464 322.429 181.107C323.143 178.964 323.429 177.036 323.357 175.321C323.286 173.464 322.786 171.893 322.143 170.607C320.786 167.964 318.714 166.679 317.643 166.607C315.429 166.464 314.857 168.25 316.786 171.75C317.786 173.536 319.143 175.964 320.286 178.036C320.857 179.036 321.357 179.964 321.714 180.607C321.714 180.679 321.786 180.679 321.786 180.75C317.071 178.25 312.214 175.893 307.286 173.821C308.214 170.107 307.571 167.25 306.357 165.321C305.071 163.321 303.357 162.393 302.5 162.393C301.357 162.607 300.857 162.964 300.786 163.679Z" fill="#84A9FF"/>
<path d="M54.5003 182.821C55.2146 182.75 56.2146 183.179 57.5717 184.107C59.7146 185.679 63.1432 188.179 64.4289 189.107C62.7146 184.464 61.1432 179.679 59.8575 174.893C56.5717 175.321 54.2146 174.464 52.786 173.25C51.286 172.036 50.6432 170.464 50.786 169.75C51.0003 168.321 52.2146 168.179 54.286 169.893C55.3575 170.75 56.7146 172.036 57.9289 173.036C58.786 173.75 59.5003 174.393 59.786 174.679C59.3575 173.179 59.0003 171.75 58.6432 170.25C58.5717 170.25 58.5717 170.25 58.5003 170.25C57.5717 170.036 56.5003 167.821 56.0003 167.036C54.9289 165.321 54.2146 163.321 54.2146 161.321C54.2146 160.464 54.5003 159.464 55.286 159.179C56.2146 158.821 57.1432 159.607 57.7146 160.321C59.3575 162.464 60.0717 165.179 59.9289 167.821C59.8575 168.536 59.786 170.179 58.8575 170.25C59.286 171.679 59.7146 173.179 60.1432 174.607C60.286 174.179 60.5717 173.25 60.8575 172.179C61.3575 170.679 62.0003 168.964 62.5003 167.75C63.5003 165.321 64.7146 164.964 65.5717 166.036C66.0003 166.536 66.1432 168.036 65.4289 169.75C64.7146 171.464 63.2146 173.321 60.2146 174.75C61.6432 179.464 63.3575 184.179 65.1432 188.75C65.286 188.179 65.5003 187.179 65.7146 186.107C66.1432 184.321 66.7146 182.107 67.2146 180.679C67.7146 179.179 68.286 178.321 68.9289 177.964C69.5717 177.607 70.1432 177.75 70.7146 178.321C71.286 178.893 71.5717 180.679 70.9289 182.75C70.286 184.75 68.6432 187.179 65.3575 189.107C67.3575 194.036 69.5717 198.964 72.0003 203.679C72.0003 203.607 72.0003 203.536 72.0003 203.464C72.0717 202.75 72.2146 201.75 72.3575 200.607C72.5003 199.464 72.7146 198.25 72.9289 197.036C73.1432 195.821 73.4289 194.679 73.6432 193.75C74.5717 190.036 76.2146 189.25 77.7146 190.536C78.5003 191.179 79.0003 193.321 78.4289 195.893C78.1432 197.179 77.5003 198.679 76.4289 200.179C75.5003 201.536 74.1432 202.964 72.286 204.321C74.5717 208.75 77.0003 213.036 79.6432 217.25C79.6432 216.393 79.7146 215.25 79.786 213.964C79.8575 212.679 80.0003 211.179 80.1432 209.821C80.2146 209.107 80.286 208.464 80.3575 207.821C80.4289 207.179 80.5717 206.607 80.6432 206.036C81.3575 201.75 83.1432 200.679 85.0003 202.036C85.4289 202.393 85.8575 203.107 86.1432 204.179C86.3575 205.25 86.5003 206.536 86.286 208.107C86.0717 209.679 85.5003 211.321 84.4289 213.179C83.5003 214.821 82.1432 216.536 80.2146 218.179C82.786 222.25 85.5717 226.25 88.5003 230.107L86.9289 231.25C84.0717 227.25 81.3575 223.179 78.8575 218.964C76.5003 219.893 74.3575 220.321 72.4289 220.321C70.286 220.321 68.4289 219.893 66.9289 219.179C65.4289 218.464 64.2146 217.536 63.4289 216.607C62.6432 215.679 62.1432 214.75 62.1432 214.179C61.9289 211.679 63.8575 210.964 68.0003 212.964C70.0717 214.036 73.0003 215.464 75.3575 216.679C76.5717 217.25 77.5717 217.75 78.3575 218.107C75.786 213.821 73.4289 209.393 71.286 204.893C69.1432 205.536 67.2146 205.75 65.5003 205.607C63.6432 205.464 62.1432 204.893 60.8575 204.179C58.286 202.75 57.0717 200.607 57.0003 199.464C57.0003 197.25 58.7146 196.75 62.1432 198.821C63.8575 199.893 66.286 201.321 68.286 202.536C69.286 203.179 70.1432 203.679 70.786 204.036C70.8575 204.036 70.8575 204.107 70.9289 204.107C68.5717 199.25 66.5003 194.321 64.6432 189.321C60.8575 190.107 58.0717 189.321 56.1432 188.036C54.2146 186.679 53.3575 184.893 53.4289 184.036C53.3575 183.393 53.786 182.893 54.5003 182.821Z" fill="#84A9FF"/>
<path d="M59.2148 398.893C59.2148 408.25 65.0006 415.821 72.2148 415.821H397.215C404.429 415.821 410.215 408.25 410.215 398.893H59.2148Z" fill="#155BCD"/>
<path d="M375.5 207.893H93.9287V384.75H375.5V207.893Z" fill="#84A9FF"/>
<path d="M380.501 189.25H89.072C83.6434 189.25 79.2148 193.679 79.2148 199.107V385.821C79.2148 391.25 83.6434 395.679 89.072 395.679H380.501C385.929 395.679 390.358 391.25 390.358 385.821V199.107C390.358 193.607 385.929 189.25 380.501 189.25Z" fill="#050F64"/>
<path d="M375.5 204.036H93.9287V380.893H375.5V204.036Z" fill="white"/>
<path d="M194.143 398.893H123.357L123.572 395.75L123.857 391.821H193.572L194.143 398.893Z" fill="#E5E6EB"/>
<path d="M346.215 398.893H275.357L275.643 395.75L275.929 391.821H345.643L346.215 398.893Z" fill="#E5E6EB"/>
<path d="M141.786 322.75H117.215V325.536H141.786V322.75Z" fill="#E5E6EB"/>
<path d="M175.358 322.75H150.786V325.536H175.358V322.75Z" fill="#E5E6EB"/>
<path d="M235.429 322.75H217.644V325.536H235.429V322.75Z" fill="#E5E6EB"/>
<path d="M278.286 322.75H250.644V325.536H278.286V322.75Z" fill="#E5E6EB"/>
<path d="M240 332.321H227.429V335.107H240V332.321Z" fill="#E5E6EB"/>
<path d="M240 339.607H227.429V342.393H240V339.607Z" fill="#E5E6EB"/>
<path d="M240 346.964H227.429V349.75H240V346.964Z" fill="#E5E6EB"/>
<path d="M240 354.25H227.429V357.036H240V354.25Z" fill="#E5E6EB"/>
<path d="M141.786 332.321H132.715V335.107H141.786V332.321Z" fill="#FF654F"/>
<path d="M141.786 339.607H132.715V342.393H141.786V339.607Z" fill="#84A9FF"/>
<path d="M141.786 346.964H132.715V349.75H141.786V346.964Z" fill="#155BCD"/>
<path d="M141.786 354.25H132.715V357.036H141.786V354.25Z" fill="#FFBD00"/>
<path d="M281 332.321H268.429V335.107H281V332.321Z" fill="#E5E6EB"/>
<path d="M281 339.607H268.429V342.393H281V339.607Z" fill="#E5E6EB"/>
<path d="M281 346.964H268.429V349.75H281V346.964Z" fill="#E5E6EB"/>
<path d="M281 354.25H268.429V357.036H281V354.25Z" fill="#E5E6EB"/>
<path d="M163.071 332.321H150.5V335.107H163.071V332.321Z" fill="#E5E6EB"/>
<path d="M169.143 339.607H150.5V342.393H169.143V339.607Z" fill="#E5E6EB"/>
<path d="M174 346.964H150.5V349.75H174V346.964Z" fill="#E5E6EB"/>
<path d="M161.286 354.25H150.5V357.036H161.286V354.25Z" fill="#E5E6EB"/>
<path d="M201.5 224.821H111.786V229.75H201.5V224.821Z" fill="#E5E6EB"/>
<path d="M124.5 243.25H111.786V248.607H124.5V243.25Z" fill="#155BCD"/>
<path d="M150 243.25H137.286V248.607H150V243.25Z" fill="#155BCD"/>
<path d="M175.5 243.25H162.786V248.607H175.5V243.25Z" fill="#155BCD"/>
<path d="M201 243.25H188.286V248.607H201V243.25Z" fill="#155BCD"/>
<path d="M226.572 243.25H213.857V248.607H226.572V243.25Z" fill="#155BCD"/>
<path d="M252.072 243.25H239.357V248.607H252.072V243.25Z" fill="#155BCD"/>
<path d="M277.572 243.25H264.857V248.607H277.572V243.25Z" fill="#155BCD"/>
<path d="M290.215 254.179H111.786V255.821H290.215V254.179Z" fill="#E5E6EB"/>
<path d="M288.429 318.821H112.215V254.25H110.786V320.321H289.858V254.25H288.429V318.821Z" fill="#E5E6EB"/>
<path d="M273.715 254.179H272.286V319.536H273.715V254.179Z" fill="#E5E6EB"/>
<path d="M257.572 254.179H256.072V319.536H257.572V254.179Z" fill="#E5E6EB"/>
<path d="M241.357 254.179H239.929V319.536H241.357V254.179Z" fill="#E5E6EB"/>
<path d="M225.215 254.179H223.786V319.536H225.215V254.179Z" fill="#E5E6EB"/>
<path d="M209.072 254.179H207.644V319.536H209.072V254.179Z" fill="#E5E6EB"/>
<path d="M192.929 254.179H191.5V319.536H192.929V254.179Z" fill="#E5E6EB"/>
<path d="M176.786 254.179H175.357V319.536H176.786V254.179Z" fill="#E5E6EB"/>
<path d="M160.643 254.179H159.215V319.536H160.643V254.179Z" fill="#E5E6EB"/>
<path d="M144.501 254.179H143.072V319.536H144.501V254.179Z" fill="#E5E6EB"/>
<path d="M128.429 254.179H126.929V319.536H128.429V254.179Z" fill="#E5E6EB"/>
<path d="M289.858 254.179H110.786V255.607H289.858V254.179Z" fill="#E5E6EB"/>
<path d="M289.143 270.393H111.5V271.821H289.143V270.393Z" fill="#E5E6EB"/>
<path d="M289.143 286.536H111.5V287.964H289.143V286.536Z" fill="#E5E6EB"/>
<path d="M289.143 302.679H111.5V304.107H289.143V302.679Z" fill="#E5E6EB"/>
<path d="M139.929 283.107H128.357V318.893H139.929V283.107Z" fill="#84A9FF"/>
<path d="M172.215 275.679H160.644V318.893H172.215V275.679Z" fill="#84A9FF"/>
<path d="M204.571 293.321H193V318.893H204.571V293.321Z" fill="#84A9FF"/>
<path d="M236.858 267.036H225.286V318.893H236.858V267.036Z" fill="#84A9FF"/>
<path d="M269.143 281.036H257.571V318.893H269.143V281.036Z" fill="#84A9FF"/>
<path d="M138.5 283.107H126.929V318.893H138.5V283.107Z" fill="#FF654F"/>
<path d="M170.786 275.679H159.215V318.893H170.786V275.679Z" fill="#FF654F"/>
<path d="M203.071 293.321H191.5V318.893H203.071V293.321Z" fill="#FF654F"/>
<path d="M235.358 267.036H223.786V318.893H235.358V267.036Z" fill="#FF654F"/>
<path d="M267.714 281.036H256.143V318.893H267.714V281.036Z" fill="#FF654F"/>
<path d="M289.858 336.607H110.786V338.107H289.858V336.607Z" fill="#E5E6EB"/>
<path d="M289.858 343.893H110.786V345.393H289.858V343.893Z" fill="#E5E6EB"/>
<path d="M289.858 351.25H110.786V352.75H289.858V351.25Z" fill="#E5E6EB"/>
<path d="M289.858 358.536H110.786V360.036H289.858V358.536Z" fill="#E5E6EB"/>
<path d="M321.144 251.821C321.787 247.893 325.001 244.821 328.93 244.25L328.787 240.607L328.43 231.607C317.93 232.464 309.572 240.679 308.501 251.036L317.501 251.607L321.144 251.821Z" fill="#FF654F"/>
<path d="M333.715 262.036C332.643 262.464 331.501 262.679 330.286 262.679C328.215 262.679 326.286 262.036 324.786 260.893L322.286 263.607L316.215 270.179C320.001 273.393 324.929 275.321 330.286 275.321C333.643 275.321 336.786 274.607 339.572 273.25L335.358 265.321L333.715 262.036Z" fill="#FFBD00"/>
<path d="M351.715 258.179L342.858 256.679C342.001 259.964 340.001 262.679 337.215 264.464L341.429 272.393L343.358 276.107C349.643 272.464 354.286 266.25 355.858 258.893L351.715 258.179Z" fill="#FFBD00"/>
<path d="M317.358 253.607L308.358 253.036L304.144 252.75C304.144 252.964 304.144 253.179 304.144 253.393C304.144 260.607 307.072 267.179 311.786 271.893L314.644 268.821L320.715 262.25C318.715 259.964 317.429 256.964 317.358 253.607Z" fill="#FF654F"/>
<path d="M337.144 242.464L335.43 245.75C337.93 247.393 339.501 250.25 339.501 253.464C339.501 253.679 339.501 253.821 339.501 254.036L343.144 254.679L352.001 256.179C352.144 255.25 352.144 254.393 352.144 253.464C352.144 245.393 347.787 238.321 341.287 234.536L337.144 242.464Z" fill="#155BCD"/>
<path d="M330.786 240.536C332.429 240.607 333.929 240.964 335.358 241.536L339.501 233.536L341.429 229.821C338.072 228.179 334.286 227.321 330.215 227.321L330.358 231.536L330.786 240.536Z" fill="#155BCD"/>
<path d="M358 290.964H302V293.75H358V290.964Z" fill="#E5E6EB"/>
<path d="M304.786 315.464H302V318.25H304.786V315.464Z" fill="#E5E6EB"/>
<path d="M358 315.464H307.5V318.25H358V315.464Z" fill="#E5E6EB"/>
<path d="M304.786 325.893H302V328.679H304.786V325.893Z" fill="#155BCD"/>
<path d="M358 325.893H307.5V328.679H358V325.893Z" fill="#E5E6EB"/>
<path d="M304.786 336.393H302V339.179H304.786V336.393Z" fill="#6292FF"/>
<path d="M358 336.393H307.5V339.179H358V336.393Z" fill="#E5E6EB"/>
<path d="M304.786 346.821H302V349.607H304.786V346.821Z" fill="#DA5544"/>
<path d="M358 346.821H307.5V349.607H358V346.821Z" fill="#E5E6EB"/>
<path d="M304.786 357.25H302V360.036H304.786V357.25Z" fill="#FFBD00"/>
<path d="M358 357.25H307.5V360.036H358V357.25Z" fill="#E5E6EB"/>
<path d="M358 298.464H302V307.75H358V298.464Z" fill="#E5E6EB"/>
<path d="M356.357 397.75C356.571 397.536 356.857 397.393 357.143 397.321C357.428 397.25 357.714 397.25 358.071 397.25C358.785 397.179 359.5 397.036 360.143 396.679C360.5 396.464 360.785 396.25 361.143 396.107L363.214 396.179C363.5 396.464 363.714 396.893 363.785 397.321C363.857 397.679 363.857 398.107 363.857 398.464V398.893H356.143V398.464C356.143 398.179 356.143 397.893 356.357 397.75Z" fill="#050F64"/>
<path d="M363.429 393.821L363.214 396.179L361.072 396.107L360.929 393.964L363.429 393.821Z" fill="#F5BDC8"/>
<path d="M335.786 396.893C336 396.679 336.286 396.607 336.572 396.536C336.857 396.536 337.143 396.536 337.5 396.607C338.214 396.679 339 396.536 339.643 396.25C340 396.107 340.357 395.893 340.714 395.821L342.786 396.107C343.072 396.464 343.143 396.893 343.214 397.321C343.286 397.679 343.214 398.107 343.143 398.464L343.072 398.893L335.429 398.036L335.5 397.607C335.5 397.321 335.572 397.036 335.786 396.893Z" fill="#050F64"/>
<path d="M365.285 359.893C365.714 351.75 365.643 340.25 363.428 333.75C363.428 333.607 346.357 335.179 346.357 335.179L342.357 351.536C340.928 357.321 340.285 363.179 340.357 369.107L340.571 393.679L343.428 393.893L348.785 361.393C350.785 357.536 352.928 353.107 354.571 348.75L360.785 394.036L363.643 393.893C363.643 393.821 365.285 359.893 365.285 359.893Z" fill="#155BCD"/>
<path d="M343.285 393.821L342.785 396.107L340.714 395.821L340.785 393.679L343.285 393.821Z" fill="#F5BDC8"/>
<path d="M326.928 281.75C327.428 281.536 328.071 281.75 328.285 282.25C329.714 285.107 331.285 287.821 332.999 290.464C334.714 293.107 336.571 295.607 338.571 297.964C340.571 300.321 342.714 302.536 345.071 304.464C346.214 305.464 347.428 306.393 348.642 307.25C348.928 307.464 349.285 307.679 349.571 307.893L350.499 308.536C351.142 308.964 351.785 309.321 352.428 309.75C352.642 309.893 352.785 310.036 352.999 310.179C353.142 310.321 353.285 310.536 353.428 310.679C353.642 311.036 353.857 311.464 353.928 311.964C354.142 312.893 353.999 313.893 353.428 314.821C352.857 315.75 351.999 316.321 351.071 316.464C350.571 316.536 350.071 316.536 349.571 316.464C349.357 316.393 349.071 316.321 348.857 316.25C348.642 316.107 348.428 315.964 348.214 315.821C347.571 315.321 346.928 314.75 346.285 314.179L345.357 313.321C345.071 313.036 344.714 312.75 344.428 312.464C343.214 311.321 341.999 310.036 340.928 308.821C338.714 306.321 336.642 303.607 334.857 300.821C333.071 298.036 331.499 295.107 330.142 292.107C328.785 289.107 327.571 286.107 326.499 283.036C326.142 282.536 326.428 281.964 326.928 281.75Z" fill="#EA8096"/>
<path d="M340.214 310.536L346.928 315.75C348.928 317.321 351.785 317.107 353.357 315.107C354.928 313.107 354.642 309.964 352.571 308.393L345.857 303.179L340.214 310.536Z" fill="#84A9FF"/>
<path d="M355.643 306.179C349.214 306.107 344.214 311.821 345.071 318.179L346.357 335.107C353.5 337.679 358.857 336.25 363.429 333.679L364.214 315.679C364.714 310.607 360.714 306.25 355.643 306.179Z" fill="#84A9FF"/>
<path d="M362.786 309.75L362.643 309.893C363.357 310.893 363.857 312.036 364.072 313.25H364.286C364.072 312.036 363.572 310.821 362.786 309.75ZM355.714 336.393V336.607C357.286 336.464 358.857 336.036 360.429 335.393L360.357 335.25C358.857 335.821 357.357 336.179 355.714 336.393ZM359.357 306.893C358.214 306.321 356.929 306.036 355.643 306.036H355.5C352.429 306.036 349.429 307.393 347.429 309.75C346.214 311.107 345.429 312.75 345.072 314.464L345.286 314.536C346.357 309.821 350.572 306.25 355.643 306.321C357 306.321 358.214 306.679 359.357 307.179V306.893ZM346.214 332.964C346.143 332.964 346.072 333.036 346 333.036L346.143 335.179L346.286 335.25C347.857 335.821 349.5 336.25 351 336.464V336.25C349.5 336.036 348 335.679 346.357 335.036L346.214 332.964ZM344.929 318.25L345.572 326.821H345.786L345.143 318.25H344.929Z" fill="white"/>
<path d="M357.214 294.464C357.214 294.464 361.643 295.536 360.571 300.464C359.857 303.75 357.429 305.464 354 306.036L357.214 294.464Z" fill="#050F64"/>
<path d="M352.57 302.75L352.927 307.821C354.356 308.679 355.785 308.607 357.142 307.607L356.785 302.536L352.57 302.75Z" fill="#F5BDC8"/>
<path d="M352.643 303.393L352.714 304.964C353.357 305.321 354.071 305.464 354.857 305.464C354.928 305.464 354.928 305.464 355 305.464C355.714 305.393 356.428 305.107 356.928 304.607L356.857 303.107L352.643 303.393Z" fill="#EA8096"/>
<path d="M350.499 296.821L350.785 300.607L350.856 301.464C351.07 303.536 352.785 305.107 354.856 305.107C355.07 305.107 355.285 305.107 355.499 305.036C355.57 305.036 355.642 304.964 355.713 304.964C355.713 304.964 355.713 304.964 355.785 304.964C356.07 304.821 356.356 304.679 356.57 304.393C357.07 303.821 357.356 303.25 357.642 302.607C357.856 302.107 358.07 301.536 358.213 301.036C358.356 300.393 358.499 299.75 358.356 299.036L358.07 295.75L351.642 295.25L350.499 296.821Z" fill="#F5BDC8"/>
<path d="M357.142 295.821C357.142 295.821 349.785 296.25 351.285 302.75C351.285 302.75 348.999 298.107 351.356 294.964C353.928 291.536 357.428 292.679 358.642 294.321C359.857 295.964 360.785 298.679 357.357 300.679C357.285 300.607 358.428 298.179 357.142 295.821Z" fill="#050F64"/>
<path d="M357 299.75C357.071 300.607 357.785 301.25 358.642 301.179C359.5 301.107 360.142 300.393 360.071 299.536C360 298.679 359.285 298.036 358.428 298.107C357.571 298.179 356.928 298.893 357 299.75Z" fill="#F5BDC8"/>
<path d="M342.786 322.107L337.5 316.393C340.714 313.393 342.429 309.393 342.429 305.036H350.214C350.214 311.536 347.5 317.75 342.786 322.107Z" fill="#050F64"/>
<path d="M350.214 305.107H342.428C342.428 296.536 335.499 289.607 326.928 289.607C325.071 289.607 323.285 289.893 321.571 290.536L318.856 283.25C321.428 282.321 324.142 281.821 326.928 281.821C339.785 281.75 350.214 292.25 350.214 305.107Z" fill="#155BCD"/>
<path d="M326.928 328.393C314.071 328.393 303.643 317.964 303.643 305.107C303.643 295.393 309.785 286.607 318.928 283.25L321.643 290.536C315.571 292.75 311.5 298.607 311.5 305.107C311.5 313.679 318.428 320.607 327 320.607C330.928 320.607 334.714 319.107 337.571 316.464L342.857 322.179C338.5 326.179 332.857 328.393 326.928 328.393Z" fill="#84A9FF"/>
<path d="M319.429 325.321C319.429 324.75 319.786 324.25 320.357 324.25C323.5 323.893 326.643 323.464 329.714 322.75C332.786 322.107 335.786 321.25 338.714 320.25C341.643 319.179 344.429 317.964 347.143 316.536C348.5 315.821 349.786 315.036 351.072 314.179C351.357 313.964 351.714 313.75 352 313.536L352.929 312.893C353.5 312.464 354.143 312.036 354.714 311.536C354.929 311.393 355.143 311.25 355.286 311.179C355.5 311.107 355.714 311.036 355.929 310.964C356.357 310.893 356.857 310.893 357.286 310.964C358.214 311.107 359.143 311.607 359.786 312.464C360.429 313.321 360.643 314.321 360.5 315.25C360.429 315.75 360.214 316.179 359.929 316.607C359.786 316.821 359.643 317.036 359.429 317.179C359.214 317.393 359 317.536 358.786 317.679C358.072 318.107 357.286 318.536 356.572 318.893L355.429 319.464C355.072 319.679 354.643 319.821 354.286 320.036C352.786 320.75 351.214 321.464 349.643 322.036C346.5 323.25 343.214 324.179 340 324.821C336.714 325.464 333.429 325.893 330.214 326.179C326.929 326.393 323.714 326.464 320.429 326.393C319.857 326.393 319.429 325.893 319.429 325.321Z" fill="#F5BDC8"/>
<path d="M351.143 323.321L358.357 318.893C360.572 317.536 361.429 314.821 360.072 312.607C358.715 310.393 355.715 309.607 353.572 310.964L346.357 315.393L351.143 323.321Z" fill="#84A9FF"/>
<path d="M360.858 313.964C360.786 313.464 360.572 312.964 360.286 312.536C359.643 311.464 358.501 310.607 357.215 310.321C357.001 310.25 356.786 310.25 356.572 310.179V310.393C358.001 310.607 359.358 311.393 360.072 312.679C361.072 314.321 360.858 316.25 359.715 317.679L359.858 317.75C360.786 316.679 361.143 315.321 360.858 313.964ZM358.501 319.036C358.501 319.036 358.572 319.036 358.572 318.964L358.358 318.893L356.215 320.179L356.358 320.321L358.501 319.036ZM355.501 320.893L355.358 320.75L353.286 321.964L353.429 322.107L355.501 320.893ZM352.358 322.75L352.215 322.607L351.143 323.25L347.429 317.179L347.286 317.25L351.072 323.536L352.358 322.75ZM352.501 311.393L347.215 314.607L347.286 314.75L352.572 311.536L352.501 311.393Z" fill="white"/>
<path d="M150.357 331.536C150.357 330.964 150 330.464 149.429 330.393C147.786 330.179 146.143 329.964 144.5 329.679C142.857 329.393 141.286 329.107 139.714 328.75C138.143 328.393 136.643 327.893 135.286 327.321C133.929 326.75 132.643 325.964 131.5 325.107C129.214 323.321 127.429 320.821 125.786 318.179C125.572 317.821 125.357 317.536 125.143 317.179L124.572 316.179C124.143 315.464 123.786 314.75 123.357 314.036C122.572 312.607 121.786 311.179 121.072 309.679C120.072 307.821 117.714 307.179 115.929 308.25C114.143 309.321 113.572 311.679 114.714 313.464C115.714 314.821 116.643 316.25 117.643 317.607C118.143 318.321 118.643 318.964 119.214 319.679L120 320.679C120.286 321.036 120.572 321.321 120.786 321.679C121.929 323.036 123.072 324.321 124.357 325.607C125.643 326.893 127.143 328.036 128.714 329.036C130.357 329.964 132.072 330.679 133.857 331.179C135.643 331.679 137.357 331.964 139.072 332.107C140.786 332.25 142.5 332.393 144.143 332.393C145.857 332.464 147.5 332.464 149.143 332.464C149.857 332.464 150.357 332.036 150.357 331.536Z" fill="#EA8096"/>
<path d="M119 321.821L114.5 314.679C113.143 312.536 113.572 309.679 115.786 308.321C117.929 306.964 121 307.536 122.357 309.75L126.857 316.893L119 321.821Z" fill="#050F64"/>
<path d="M112.5 360.964L118.429 396.107L120.5 395.75L121.071 360.679L112.5 360.964Z" fill="#F5BDC8"/>
<path d="M121.643 360.607L111.928 360.964C109.285 354.536 107 340.321 109.714 333.75L120.571 336.179L121.643 360.607Z" fill="#155BCD"/>
<path d="M116.55 341.511C119.535 340.613 121.226 337.466 120.329 334.482C119.431 331.498 116.284 329.806 113.3 330.703C110.316 331.601 108.624 334.748 109.522 337.732C110.419 340.717 113.566 342.408 116.55 341.511Z" fill="#155BCD"/>
<path d="M101.429 359.536L98 395.393L100.143 395.536L109.786 361.393L101.429 359.536Z" fill="#F5BDC8"/>
<path d="M111.785 330.607C109.499 329.893 107.142 330.75 105.714 332.536C105.642 332.679 105.499 332.821 105.428 332.964C101.357 338.893 100.071 352.679 100.928 359.393L110.357 361.536L115.571 337.679C116.499 334.679 114.785 331.536 111.785 330.607Z" fill="#155BCD"/>
<path d="M111.786 355.179L110.429 361.536L108.857 361.179V361.393L110.571 361.75L112 355.25L111.786 355.179ZM103.286 336.75C102.357 339.25 101.571 342.321 101.071 345.893C101.071 345.964 101.071 346.036 101.071 346.107H101.286C101.714 342.821 102.5 339.607 103.5 336.893L103.286 336.75ZM100.5 353.679H100.714C100.714 352.107 100.857 350.464 101 348.821H100.786C100.571 350.464 100.5 352.107 100.5 353.679ZM100.929 359.393C100.786 358.464 100.714 357.393 100.714 356.25H100.5C100.571 357.393 100.643 358.464 100.714 359.393V359.536L106.429 360.821L106.5 360.679L100.929 359.393ZM114.214 343.821L113 349.464H113.214L114.429 343.821H114.214Z" fill="#84A9FF"/>
<path d="M104.643 397.679C104.5 397.393 104.214 397.25 103.928 397.179C103.643 397.107 103.357 397.107 103.071 397.036C102.357 396.893 101.643 396.607 101.071 396.179C100.786 395.964 100.5 395.679 100.143 395.536L98.0713 395.321C97.7856 395.607 97.4999 395.964 97.357 396.393C97.2141 396.75 97.2141 397.179 97.1427 397.536L97.0713 397.964L104.714 398.821L104.786 398.393C104.857 398.179 104.786 397.893 104.643 397.679Z" fill="#050F64"/>
<path d="M125.429 396.607C125.214 396.393 124.929 396.321 124.571 396.321C124.286 396.321 124 396.393 123.643 396.393C122.929 396.464 122.143 396.393 121.5 396.107C121.143 395.964 120.786 395.821 120.429 395.679L118.357 396.036C118.143 396.393 118 396.821 118 397.25C118 397.607 118 398.036 118.071 398.393L118.143 398.821L125.786 397.679L125.714 397.25C125.714 397.036 125.643 396.821 125.429 396.607Z" fill="#050F64"/>
<path d="M112.929 306.393C119.357 306.464 124.214 312.25 123.214 318.607L120.643 335.75C116 337.393 109.5 336.821 104.143 335.25V315.679C103.786 310.607 107.857 306.321 112.929 306.393Z" fill="#050F64"/>
<path d="M103.929 326.821V334.25H104.143V326.821H103.929ZM112.929 306.25H112.857C112.572 306.25 112.286 306.25 112 306.321V306.536C112.286 306.536 112.572 306.464 112.929 306.464C114.429 306.464 115.786 306.821 117.072 307.321L117.143 307.179C115.857 306.536 114.429 306.25 112.929 306.25ZM121 310.036C120.429 309.393 119.786 308.75 119.072 308.25L118.929 308.393C121.572 310.321 123.286 313.464 123.286 316.893C123.286 317.464 123.214 318.036 123.143 318.607L122.572 322.393L122.786 322.464L123.357 318.679C123.857 315.536 123 312.393 121 310.036ZM120.572 335.75C116.357 337.25 110.643 336.893 105.643 335.679V335.893C108.5 336.607 111.429 336.964 114.072 336.964C116.572 336.964 118.786 336.607 120.643 335.964L120.714 335.893L122.214 326.036H122L120.572 335.75ZM108.5 307.536L108.429 307.321C107.643 307.75 106.929 308.321 106.357 308.964C104.643 310.75 103.786 313.179 104 315.607V320.179H104.214V315.607C103.929 312.25 105.714 309.179 108.5 307.536Z" fill="white"/>
<path d="M115.929 303.464L115.643 308.679C114.143 309.464 112.786 309.393 111.429 308.393L111.714 303.179L115.929 303.464Z" fill="#F5BDC8"/>
<path d="M115.857 305.036V305.607C115.214 305.964 114.428 306.107 113.643 306.107C113.571 306.107 113.571 306.107 113.5 306.107C112.785 306.036 112.143 305.75 111.643 305.25L111.714 303.75L115.857 305.036Z" fill="#EA8096"/>
<path d="M118.143 297.536L117.786 301.25L117.715 302.107C117.5 304.179 115.715 305.75 113.643 305.679C113.429 305.679 113.215 305.607 113 305.607C112.929 305.607 112.857 305.536 112.786 305.536C112.786 305.536 112.786 305.536 112.715 305.536C112.429 305.393 112.143 305.179 111.929 304.964C111.5 304.393 111.215 303.821 110.929 303.179C110.715 302.607 110.5 302.107 110.357 301.536C110.215 300.893 110.143 300.25 110.215 299.536L110.357 296.964L117 295.893L118.143 297.536Z" fill="#F5BDC8"/>
<path d="M117.929 303.393C117.929 303.393 117.929 301.179 117.857 300.107C117.786 299.107 117.572 298.107 116.786 298.25C115.286 298.536 114.714 297.25 114.714 297.25C114.286 297.25 113.857 297.321 113.357 297.464C111.143 298.036 110.786 297.464 110.5 297.107C109.929 298.821 110.143 301.036 110.143 301.25C110.143 301.321 110.214 301.464 110.214 301.536C110.357 302.107 110.572 302.607 110.786 303.179C111 303.679 111.214 304.179 111.5 304.607V304.964C109.929 304.679 108 302.964 107.5 301.607C105.857 296.464 108.643 293.393 112.572 292.607C116 291.964 117.857 295.107 118.572 297.964C119.143 299.607 118.357 302.964 117.929 303.393Z" fill="#050F64"/>
<path d="M111.643 300.321C111.572 301.179 110.858 301.821 110 301.75C109.143 301.679 108.5 300.964 108.572 300.107C108.643 299.25 109.358 298.607 110.215 298.679C111.072 298.75 111.643 299.464 111.643 300.321Z" fill="#F5BDC8"/>
<path d="M175.124 330.049H182.838V318.691H175.124V330.049Z" fill="#84A9FF"/>
<path d="M165.158 330.089H172.872V309.303H165.158V330.089Z" fill="#84A9FF"/>
<path d="M155.192 330.07H162.906V303.642H155.192V330.07Z" fill="#155BCD"/>
<path d="M145.297 330.052H153.012V298.338H145.297V330.052Z" fill="#155BCD"/>
<path d="M135.331 330.06H143.045V300.488H135.331V330.06Z" fill="#155BCD"/>
<path d="M125.365 330.07H133.079V303.642H125.365V330.07Z" fill="#84A9FF"/>
<path d="M115.399 330.089H123.113V309.303H115.399V330.089Z" fill="#155BCD"/>
<path d="M113.656 331.125H184.513V330.054H113.656V331.125Z" fill="#050F64"/>
<path d="M145.428 330.036C145.356 329.464 144.928 329.036 144.356 329.036C142.714 329.036 141.071 329.036 139.428 329.036C137.785 328.964 136.142 328.893 134.571 328.75C132.999 328.607 131.428 328.321 129.999 327.964C128.571 327.536 127.214 327.036 125.928 326.25C123.428 324.75 121.285 322.607 119.285 320.179C118.999 319.893 118.785 319.607 118.499 319.25L117.785 318.321C117.285 317.679 116.785 317.036 116.356 316.393C115.356 315.107 114.428 313.75 113.499 312.393C112.285 310.75 109.856 310.393 108.214 311.75C106.571 313.036 106.356 315.536 107.785 317.107C108.928 318.321 110.071 319.536 111.285 320.821C111.856 321.464 112.499 322.036 113.071 322.679L113.999 323.607C114.285 323.893 114.642 324.179 114.928 324.464C116.214 325.679 117.571 326.821 119.071 327.893C120.571 328.964 122.142 329.893 123.856 330.679C125.571 331.393 127.428 331.893 129.214 332.107C130.999 332.321 132.785 332.393 134.499 332.321C136.214 332.25 137.928 332.107 139.571 331.893C141.214 331.679 142.928 331.464 144.571 331.25C145.071 331.036 145.428 330.536 145.428 330.036Z" fill="#F5BDC8"/>
<path d="M112.857 324.536L107.357 318.107C105.714 316.179 105.786 313.321 107.714 311.607C109.643 309.964 112.786 310.107 114.428 312.107L119.928 318.536L112.857 324.536Z" fill="#050F64"/>
<path d="M111.214 310.321C110.357 310.25 109.571 310.393 108.785 310.75L108.857 310.893C110.714 310.036 113.071 310.464 114.428 312.107L114.928 312.679L115.071 312.536L114.571 311.964C113.785 311.036 112.571 310.393 111.214 310.321ZM119.928 318.607L114.142 323.464L114.285 323.607L120.214 318.607L117.071 314.893L116.928 315.036L119.928 318.607ZM107.071 312.107C105.785 313.607 105.714 315.821 106.785 317.607L106.928 317.536C105.928 315.893 105.928 313.75 107.142 312.25L107.071 312.107ZM112.357 324.25L112.499 324.107L109.857 320.964L109.714 321.107L112.357 324.25Z" fill="white"/>
<path d="M433.572 419.893H35.9288C34.786 419.893 33.8574 418.964 33.8574 417.821C33.8574 416.679 34.786 415.75 35.9288 415.75H433.643C434.786 415.75 435.715 416.679 435.715 417.821C435.643 418.964 434.715 419.893 433.572 419.893Z" fill="#050F64"/>
<path d="M125.59 200.954L109.569 214.86L117.857 224.408L133.878 210.502L125.59 200.954Z" fill="#84A9FF"/>
<path d="M107.513 212.531L58.6406 254.951L71.0951 269.3L119.967 226.88L107.513 212.531Z" fill="#155BCD"/>
<path d="M193.072 214.679C213.143 197.25 215.357 166.679 197.857 146.607C180.429 126.536 149.857 124.321 129.786 141.821C111.286 157.893 108 184.964 121.143 204.821C122.286 206.536 123.572 208.25 125 209.893C126.429 211.536 127.929 213.036 129.429 214.393C147.286 230.179 174.643 230.75 193.072 214.679ZM138.143 151.393C152.929 138.536 175.5 140.107 188.357 154.964C201.214 169.821 199.643 192.321 184.786 205.179C169.929 218.036 147.429 216.464 134.572 201.607C121.714 186.75 123.286 164.25 138.143 151.393Z" fill="#155BCD"/>
<g opacity="0.5">
<path d="M134.571 201.607C121.714 186.75 123.286 164.25 138.143 151.393C152.929 138.536 175.5 140.107 188.357 154.964C201.214 169.821 199.643 192.321 184.786 205.179C170 217.964 147.429 216.393 134.571 201.607Z" fill="#84A9FF"/>
</g>
<path d="M171.215 155.107C171.358 154.821 171.501 154.607 171.787 154.393C172.501 153.821 173.572 154.036 174.072 154.75L188.93 174.964C189.501 175.679 189.287 176.75 188.572 177.25C187.858 177.821 186.787 177.607 186.287 176.893L171.43 156.679C171.072 156.25 171.001 155.607 171.215 155.107Z" fill="white"/>
<path d="M163.287 160.964C163.429 160.679 163.572 160.464 163.858 160.25C164.572 159.679 165.644 159.893 166.144 160.607L181.001 180.821C181.572 181.536 181.358 182.607 180.644 183.107C179.929 183.679 178.858 183.464 178.358 182.75L163.501 162.536C163.144 162.107 163.072 161.464 163.287 160.964Z" fill="white"/>
<path d="M275.786 394.25L266.571 398.893C266.428 398.607 266.357 398.25 266.428 397.893C266.5 397.464 266.786 397.179 267.071 396.964C267.428 396.75 267.786 396.536 268.143 396.393C269 395.893 269.714 395.25 270.286 394.393C270.571 393.964 270.786 393.536 271.143 393.107L273.714 391.893C274.214 392.107 274.714 392.464 275.071 392.893C275.357 393.25 275.571 393.75 275.786 394.25Z" fill="#050F64"/>
<path d="M284.785 397.536L274.5 398.893C274.428 398.536 274.5 398.179 274.643 397.893C274.857 397.536 275.214 397.321 275.571 397.179C275.928 397.036 276.357 397.036 276.785 396.964C277.785 396.821 278.643 396.393 279.428 395.821C279.857 395.536 280.214 395.179 280.643 394.893L283.428 394.607C283.857 394.964 284.214 395.464 284.357 396.036C284.643 396.536 284.714 397.036 284.785 397.536Z" fill="#050F64"/>
<path d="M257.286 364.464L270.715 393.25L274.072 391.893L265.5 365.036L272.429 354.107L280.286 394.964L283.929 394.75L284 342.464C284.072 341.964 261.929 340.607 261.929 340.607L257.072 362.321C257 363.107 257.072 363.75 257.286 364.464Z" fill="#84A9FF"/>
<path d="M234.929 346.321C236 345.25 237.072 344.321 238.143 343.321C238.429 343.107 238.643 342.821 238.929 342.607C239.214 342.321 239.429 342.107 239.714 341.893L240.429 341.107L240.786 340.75L241.143 340.393C243.072 338.321 244.786 336.107 246.357 333.75C247.072 332.536 247.857 331.393 248.572 330.179L249.072 329.25C249.143 329.107 249.214 328.964 249.357 328.821L249.572 328.321L250.5 326.464C250.572 326.321 250.643 326.179 250.714 325.964L250.929 325.464L251.357 324.536L251.786 323.607L252 323.107L252.143 322.893L252.214 322.679L253 320.75C253.286 320.107 253.5 319.464 253.786 318.75C254.072 317.893 254.786 317.321 255.643 317.036C256.5 316.75 257.5 316.75 258.429 317.179C259.357 317.607 260.072 318.321 260.429 319.107C260.786 319.964 260.786 320.893 260.357 321.75C260 322.393 259.643 323.036 259.214 323.75L258.072 325.679L257.929 325.893L257.786 326.107L257.5 326.607L256.857 327.536L256.214 328.464L255.929 328.964C255.857 329.107 255.714 329.25 255.572 329.464L254.286 331.321L253.929 331.75C253.786 331.893 253.714 332.036 253.572 332.179L252.857 333.107C251.929 334.321 250.929 335.464 249.929 336.607C247.857 338.821 245.643 340.964 243.357 342.821L242.929 343.179L242.5 343.536L241.572 344.179C241.286 344.393 241 344.607 240.643 344.821C240.357 345.036 240.072 345.25 239.714 345.464C238.5 346.321 237.286 347.107 236.143 347.893C235.786 348.179 235.214 348.107 234.786 347.679C234.572 347.25 234.572 346.679 234.929 346.321Z" fill="#EA8096"/>
<path d="M257.071 332.607L261.071 323.893C262.286 321.25 261.357 318.179 258.714 316.964C256.071 315.75 252.714 316.893 251.571 319.536L247.571 328.25L257.071 332.607Z" fill="#155BCD"/>
<path d="M261.357 311.321C255.857 312.679 252.643 318.393 254.5 323.821L263 349.607C272.929 350.821 277.5 347.679 284.215 342.679L275.357 318.75C273.215 313.107 267.215 309.893 261.357 311.321Z" fill="#155BCD"/>
<path d="M271 313.107C272 313.821 272.929 314.679 273.715 315.75L273.929 315.536C273.143 314.536 272.215 313.607 271.215 312.893L271 313.107ZM282.429 343.893L282.572 344.107C283.143 343.679 283.643 343.321 284.215 342.893L284.358 342.75L282.072 336.536L281.786 336.607L284 342.679C283.572 343.036 283 343.464 282.429 343.893ZM262.715 349.821H262.929C264.858 350.036 266.572 350.179 268.143 350.107L268.072 349.821C266.5 349.893 264.858 349.821 262.929 349.607L257.929 334.464L257.643 334.536L262.715 349.821ZM277.429 347.179C276.715 347.536 276.072 347.893 275.286 348.179L275.429 348.464C276.215 348.107 276.929 347.75 277.643 347.393L277.429 347.179ZM278.929 328.607L279.215 328.464L277.072 322.75L276.786 322.893L278.929 328.607ZM255.643 328.464L255.929 328.393L254.429 323.75C252.786 318.893 255.286 313.679 259.858 311.75C260.072 311.679 260.286 311.536 260.572 311.464L260.429 311.179C260.215 311.25 260 311.321 259.786 311.393C254.929 313.393 252.429 318.821 254.143 323.821L255.643 328.464Z" fill="white"/>
<path d="M235.214 351.107C241.071 356.75 249.928 358.679 257.857 355.393L249.785 336.179L235.214 351.107Z" fill="#155BCD"/>
<path d="M249.785 336.107L270.642 335.107C270.499 332.75 269.999 330.321 268.999 328.036C267.071 323.464 263.714 319.964 259.642 317.75L249.785 336.107Z" fill="#050F64"/>
<path d="M241.643 316.893L249.714 336.107L259.643 317.75C254.357 314.893 247.714 314.321 241.643 316.893Z" fill="#050F64"/>
<path d="M249.785 336.107L257.857 355.321C266.142 351.821 270.999 343.607 270.571 335.107L249.785 336.107Z" fill="#050F64"/>
<path d="M230.571 344.25C231.714 346.893 233.285 349.25 235.285 351.107L249.857 336.107L229.143 333.679C228.643 337.179 229.071 340.75 230.571 344.25Z" fill="#155BCD"/>
<path d="M248.143 333.893C248.5 333.464 249.071 333.393 249.5 333.679C250.786 334.536 252.143 335.393 253.5 336.107C254.143 336.464 254.857 336.821 255.571 337.107C256.286 337.393 256.928 337.679 257.643 337.893C258.357 338.107 259 338.25 259.643 338.25C259.786 338.25 259.928 338.25 260.071 338.25H260.286H260.428H260.5C260.786 338.25 261.071 338.179 261.286 338.107C261.5 338.036 261.714 337.893 261.928 337.821C262.143 337.679 262.286 337.536 262.5 337.393C262.643 337.25 262.857 337.036 263 336.821C263.143 336.607 263.286 336.393 263.428 336.107C263.714 335.607 263.928 334.964 264.143 334.321C264.357 333.679 264.5 333.036 264.643 332.321C264.928 330.893 265.071 329.464 265.143 327.964C265.214 326.464 265.286 324.964 265.286 323.393C265.286 321.893 265.214 320.321 265.143 318.75C265.143 317.75 265.5 316.893 266.214 316.179C266.857 315.536 267.786 315.107 268.857 315.107C269.857 315.107 270.786 315.536 271.5 316.25C272.143 316.964 272.5 317.893 272.428 318.893C272.286 320.536 272.143 322.179 271.857 323.75C271.643 325.393 271.357 327.036 271.071 328.679C270.714 330.321 270.357 331.964 269.786 333.679C269.5 334.536 269.214 335.321 268.786 336.179C268.357 337.036 267.928 337.821 267.357 338.607C267.071 339.036 266.714 339.393 266.357 339.75C266 340.107 265.571 340.464 265.143 340.75C264.714 341.036 264.214 341.321 263.643 341.536C263.143 341.75 262.571 341.893 262.071 341.964C261.571 342.036 261 342.036 260.5 342.036H260.286H260.071L259.714 341.964C259.5 341.893 259.214 341.893 259 341.821C258.071 341.607 257.214 341.321 256.428 340.964C255.643 340.607 254.857 340.179 254.143 339.75C253.428 339.321 252.714 338.821 252.071 338.321C250.714 337.321 249.5 336.321 248.286 335.25C247.857 334.893 247.786 334.321 248.143 333.893Z" fill="#F5BDC8"/>
<path d="M273.5 329.964L273.786 320.393C273.857 317.464 271.786 314.964 268.929 314.893C266 314.821 263.429 317.179 263.286 320.036L263 329.607L273.5 329.964Z" fill="#155BCD"/>
<path d="M263.072 321.036C263.143 321.036 263.286 321.036 263.357 321.036V320.107C263.357 319.75 263.429 319.464 263.5 319.107L263.215 319.036C263.143 319.393 263.072 319.75 263.072 320.107V321.036ZM271.143 330.179L273.786 330.25L273.857 327.321L273.572 327.25L273.5 329.964L271.143 329.893V330.179ZM273.786 322.036L273.643 325.536H273.929L274.072 321.964L273.786 322.036ZM264.715 316.393L265 316.464C266.072 315.464 267.429 314.893 268.929 314.893C270.143 314.964 271.286 315.393 272.072 316.179L272.215 315.964C271.286 315.107 270.143 314.679 268.929 314.607C268.143 314.607 267.357 314.75 266.572 315.036C265.857 315.393 265.215 315.821 264.715 316.393ZM262.857 327.25L263.143 327.321L263.215 324.893H262.929L262.857 327.25ZM266.072 330.036L268.5 330.107V329.821L266.143 329.75L266.072 330.036Z" fill="white"/>
<path d="M256.501 310.464L259.93 316.464C261.715 316.607 263.001 315.821 263.858 314.25L260.43 308.25L256.501 310.464Z" fill="#F5BDC8"/>
<path d="M256.501 310.464L258.072 313.179C258.43 313.107 258.715 313.036 259.072 312.893C259.144 312.821 259.287 312.821 259.358 312.75C260.43 312.107 261.144 311.036 261.358 309.893L260.43 308.25L256.501 310.464Z" fill="#EA8096"/>
<path d="M252.643 307.821L254.143 310.321L254.786 311.321C255.643 312.679 257.429 313.25 258.857 312.536C259.357 312.321 259.786 311.964 260.072 311.607C260.143 311.536 260.215 311.393 260.286 311.321C260.357 311.25 260.357 311.179 260.429 311.107C260.786 310.464 261 309.821 260.929 309.036C260.857 308.393 260.786 307.75 260.715 307.036C260.643 306.607 260.572 306.25 260.5 305.821C260.143 304.036 258.857 302.536 257.143 302.036C255.643 301.607 254.286 301.964 253.143 303.179C251.929 304.464 251.715 306.321 252.643 307.821Z" fill="#F5BDC8"/>
<path d="M258.429 306.607H257.858C257.858 306.607 257.858 304.321 257.286 303.821C256.429 303.107 254.072 304.036 253.072 304.821C252.786 305.107 252.572 305.321 252.572 305.75C252.643 306.607 252.929 308.25 253.786 309.679C253.786 309.679 250.215 305.964 250.572 302.964C250.786 300.964 251.143 299.536 253.643 299.536C257.572 299.536 260.501 301.464 261.643 305.536L259.143 305.679L258.429 306.607Z" fill="#050F64"/>
<path d="M258.572 306.893C259 307.607 260 307.821 260.786 307.393C261.572 306.964 261.929 305.964 261.5 305.25C261.072 304.536 260.072 304.321 259.286 304.75C258.429 305.179 258.143 306.179 258.572 306.893Z" fill="#F5BDC8"/>
<path d="M250.858 357.036H200.786V398.893H250.858V357.036Z" fill="#FFBD00"/>
<path d="M200.786 357.036H183.786V398.893H200.786V357.036Z" fill="#DCA000"/>
<path d="M200.786 357.036L194.072 369.821H175.357L183.786 357.036H200.786Z" fill="#DCA000"/>
<path d="M258.643 371.25L208.643 374.464L200.786 357.036L250.858 360.25L258.643 371.25Z" fill="#DCA000"/>
<path d="M258.643 371.25H208.643L200.786 357.036H250.858L258.643 371.25Z" fill="#FFBD00"/>
<path d="M200.786 357.036L197 371.321L175.357 369.821H194.072L200.786 357.036Z" fill="#FFBD00"/>
<path d="M10.7148 172.821C13.2148 159.536 18.4291 146.75 25.5006 135.179C29.072 129.393 33.1434 123.893 37.7148 118.821C40.0006 116.25 42.3577 113.821 44.8577 111.464C47.3577 109.107 49.9291 106.893 52.572 104.75C63.2863 96.25 75.6434 89.8214 88.7149 85.6786C95.2863 83.6071 102.001 82.1786 108.786 81.3214C110.501 81.1071 112.215 80.9643 113.858 80.75L116.429 80.5357C117.286 80.4643 118.143 80.4643 119.001 80.3928C122.429 80.25 125.858 80.25 129.286 80.3928C132.715 80.5357 136.143 80.8928 139.501 81.3214C142.929 81.75 146.286 82.3928 149.643 83.1071C151.286 83.4643 153.001 83.8928 154.643 84.3214L157.143 85.0357C158.001 85.25 158.786 85.5357 159.572 85.8214C160.001 85.9643 160.358 86.1071 160.786 86.1786L162.001 86.6071C162.786 86.8928 163.643 87.1786 164.429 87.4643C165.215 87.75 166.001 88.0357 166.858 88.3928L169.215 89.3928C169.643 89.5357 170.001 89.75 170.429 89.8928L171.572 90.3928L173.929 91.4643L176.215 92.6071L177.358 93.1786L178.501 93.75L180.786 94.9643L183.001 96.1786L184.143 96.8214L185.215 97.4643L187.429 98.75C190.358 100.464 193.215 102.25 196.072 104.107C198.929 105.964 201.715 107.821 204.572 109.75C210.143 113.536 215.715 117.393 221.358 121.107C224.143 122.964 227.001 124.75 229.858 126.536C232.715 128.25 235.643 129.964 238.572 131.607C240.001 132.464 241.501 133.179 243.001 133.964C243.715 134.393 244.501 134.679 245.286 135.107C246.072 135.464 246.786 135.893 247.572 136.179C249.072 136.893 250.643 137.607 252.215 138.179C253.001 138.464 253.786 138.821 254.572 139.107L256.929 139.964C257.715 140.25 258.501 140.536 259.286 140.821C260.072 141.107 260.858 141.393 261.715 141.607L264.143 142.321C264.572 142.464 264.929 142.536 265.358 142.679L266.572 142.964C267.358 143.179 268.215 143.393 269.001 143.536L271.501 144.036C271.929 144.107 272.358 144.179 272.715 144.25L273.929 144.464L276.429 144.821C269.715 144.25 263.001 142.893 256.572 140.821C250.143 138.75 243.858 136.036 237.786 132.964C234.715 131.464 231.786 129.821 228.858 128.107C225.929 126.393 223.001 124.679 220.143 122.893C217.286 121.107 214.429 119.25 211.572 117.464L203.072 111.964C200.215 110.107 197.429 108.321 194.572 106.536C191.715 104.75 188.858 103.036 185.929 101.321L183.715 100.107L182.643 99.4643L181.572 98.8928L179.358 97.6786L177.143 96.5357L176.001 95.9643L174.858 95.3928L172.572 94.3214L170.286 93.3214L169.143 92.8214C168.786 92.6786 168.358 92.5357 168.001 92.3214C155.715 87.1786 142.501 84.3214 129.215 83.8214C115.929 83.25 102.501 84.8928 89.7863 88.75C86.572 89.6786 83.4291 90.8214 80.3577 92.0357C77.2863 93.25 74.2148 94.6786 71.2863 96.1786C65.3577 99.1786 59.7148 102.75 54.3577 106.75C49.072 110.821 44.072 115.25 39.5006 120.179C34.9291 125.036 30.7863 130.321 27.072 135.893C19.5006 147.25 14.0006 159.679 10.7148 172.821Z" fill="#E5E6EB"/>
<path d="M452.928 264.536C457.571 274.464 460.285 285.321 461.143 296.321C461.928 307.321 460.857 318.536 457.857 329.25C454.857 339.893 449.857 350.036 443.357 358.964C436.857 367.893 428.857 375.75 419.643 381.75C428.143 374.821 435.571 366.75 441.571 357.75C447.571 348.75 452.214 338.893 455.143 328.464C458.071 318.107 459.357 307.25 458.928 296.393C458.643 285.607 456.571 274.821 452.928 264.536Z" fill="#E5E6EB"/>
<path d="M439.929 301.679C440.215 308.464 439.286 315.393 437.357 321.893C436.357 325.179 435.143 328.393 433.643 331.464C432.143 334.536 430.357 337.536 428.429 340.321C426.429 343.107 424.215 345.75 421.857 348.25C419.429 350.679 416.857 352.964 414.072 354.964C408.572 359.036 402.357 362.179 395.857 364.179C402.143 361.679 408.072 358.25 413.429 354.107C416.072 352.036 418.572 349.75 420.929 347.321C423.286 344.893 425.429 342.321 427.357 339.536C429.286 336.821 431 333.893 432.572 330.893C434.072 327.893 435.357 324.75 436.429 321.536C438.5 315.25 439.643 308.536 439.929 301.679Z" fill="white"/>
</svg>
