<svg width="120" height="120" viewBox="0 0 120 120" fill="none" xmlns="http://www.w3.org/2000/svg">
<path d="M31.875 22.9688H69.375C74.5528 22.9688 78.75 27.1662 78.75 32.3438V69.8438C78.75 75.0216 74.5528 79.2188 69.375 79.2188H31.875C26.6974 79.2188 22.5 75.0216 22.5 69.8438V32.3438C22.5 27.1662 26.6974 22.9688 31.875 22.9688Z" fill="#DFECFD"/>
<path d="M50.625 41.7188H88.125C93.3028 41.7188 97.5 45.9162 97.5 51.0938V88.5938C97.5 93.7716 93.3028 97.9688 88.125 97.9688H50.625C45.4474 97.9688 41.25 93.7716 41.25 88.5938V51.0938C41.25 45.9162 45.4474 41.7188 50.625 41.7188Z" fill="#4988FD"/>
<path d="M72.147 82.5063C70.8528 82.5063 69.8033 81.4568 69.8033 80.1626V63.9977C69.8029 63.7135 69.6899 63.4411 69.489 63.24C69.2881 63.039 69.0157 62.9259 68.7315 62.9255H60.9741C59.6797 62.9255 58.6304 61.8759 58.6304 60.5817C58.6304 59.2875 59.6797 58.238 60.9741 58.238H68.7319C71.9077 58.2387 74.4908 60.8224 74.4908 63.9977V80.1626C74.4908 81.457 73.4412 82.5063 72.147 82.5063Z" fill="white"/>
<path d="M72.145 82.5176C71.7343 82.5175 71.3309 82.409 70.9755 82.203C69.8545 81.5557 69.4704 80.1225 70.1177 79.0015L75.772 69.2079C76.4191 68.0869 77.8523 67.703 78.9736 68.3501C80.0946 68.9974 80.4787 70.4306 79.8314 71.5516L74.1771 81.3452C73.9713 81.702 73.6751 81.9982 73.3184 82.2041C72.9616 82.4099 72.5569 82.518 72.145 82.5176Z" fill="white"/>
<path d="M72.1495 82.5178C71.7376 82.5182 71.3329 82.4101 70.9762 82.2043C70.6194 81.9984 70.3232 81.7022 70.1174 81.3455L64.4629 71.5519C63.8156 70.4309 64.1997 68.9977 65.3207 68.3503C66.4415 67.7032 67.8749 68.0876 68.5223 69.2081L74.1768 79.0017C74.8242 80.1227 74.44 81.5559 73.319 82.2033C72.9636 82.4092 72.5602 82.5177 72.1495 82.5178Z" fill="white"/>
</svg>
