<svg
  width="16"
  height="16"
  viewBox="0 0 16 16"
  fill="none"
  xmlns="http://www.w3.org/2000/svg"
>
  <path
    fill-rule="evenodd"
    clip-rule="evenodd"
    d="M8 0C5.79 0 4 1.79 4 4C4 6.21 5.79 8 8 8C10.21 8 12 6.21 12 4C12 1.79 10.21 0 8 0ZM8.00002 1.9C9.16002 1.9 10.1 2.84 10.1 4C10.1 5.16 9.16002 6.1 8.00002 6.1C6.84002 6.1 5.90002 5.16 5.90002 4C5.90002 2.84 6.84002 1.9 8.00002 1.9ZM8 9C5.33 9 0 10.34 0 13V16H16V13C16 10.34 10.67 9 8 9ZM8.00002 10.9C10.97 10.9 14.1 12.36 14.1 13V14.1H1.90002V13C1.90002 12.36 5.03002 10.9 8.00002 10.9Z"
    fill="#F5F7FA"
  />
</svg>